<svg viewBox="0 0 3227 897.26" xmlns="http://www.w3.org/2000/svg" data-name="Layer 2" id="Layer_2">
  <defs>
    <style>
      .cls-1 {
        stroke-width: 0px;
      }

      .cls-1, .cls-2 {
        fill: #000;
      }

      .cls-3 {
        opacity: .95;
      }

      .cls-2 {
        stroke: #000;
        stroke-miterlimit: 10;
        stroke-width: 7.22px;
      }
    </style>
  </defs>
  <g data-name="Layer 1" id="Layer_1-2">
    <g>
      <g class="cls-3">
        <path d="M24.21,691.86v147.62H0v-147.62h24.21Z" class="cls-1"></path>
        <path d="M139.87,726.27c7.29,3.82,12.99,9.49,17.1,16.99,4.11,7.51,6.16,16.57,6.16,27.19v69.03h-24v-65.42c0-10.48-2.62-18.51-7.86-24.11-5.24-5.59-12.39-8.39-21.45-8.39s-16.25,2.8-21.56,8.39c-5.31,5.6-7.97,13.63-7.97,24.11v65.42h-24.21v-117.04h24.21v13.38c3.96-4.81,9.03-8.57,15.19-11.26,6.16-2.69,12.71-4.04,19.65-4.04,9.2,0,17.45,1.91,24.75,5.74Z" class="cls-1"></path>
        <path d="M222.18,742.2v64.78c0,4.39,1.03,7.54,3.08,9.45,2.05,1.91,5.56,2.87,10.51,2.87h14.87v20.18h-19.12c-10.91,0-19.26-2.55-25.06-7.65-5.81-5.1-8.71-13.38-8.71-24.85v-64.78h-13.81v-19.75h13.81v-29.1h24.43v29.1h28.46v19.75h-28.46Z" class="cls-1"></path>
        <path d="M379.36,789.99h-89.42c.71,9.35,4.18,16.85,10.41,22.52,6.23,5.67,13.88,8.5,22.94,8.5,13.03,0,22.23-5.45,27.61-16.36h26.13c-3.54,10.76-9.95,19.58-19.22,26.44-9.28,6.87-20.78,10.3-34.52,10.3-11.19,0-21.21-2.51-30.06-7.54-8.85-5.02-15.79-12.11-20.82-21.24-5.03-9.13-7.54-19.72-7.54-31.75s2.44-22.62,7.33-31.75c4.89-9.13,11.75-16.18,20.6-21.13,8.85-4.96,19.01-7.43,30.48-7.43s20.89,2.41,29.52,7.22c8.64,4.82,15.36,11.58,20.18,20.29,4.81,8.71,7.22,18.73,7.22,30.06,0,4.39-.29,8.36-.85,11.9ZM354.93,770.45c-.14-8.92-3.33-16.07-9.56-21.45-6.23-5.38-13.95-8.07-23.15-8.07-8.36,0-15.51,2.65-21.45,7.96s-9.49,12.5-10.62,21.56h64.79Z" class="cls-1"></path>
        <path d="M442.33,725.53c5.87-3.33,12.85-4.99,20.92-4.99v25.06h-6.16c-9.49,0-16.67,2.41-21.56,7.22-4.89,4.82-7.33,13.17-7.33,25.06v61.6h-24.21v-117.04h24.21v16.99c3.54-5.95,8.25-10.58,14.12-13.91Z" class="cls-1"></path>
        <path d="M569.35,726.27c7.29,3.82,12.99,9.49,17.1,16.99,4.11,7.51,6.16,16.57,6.16,27.19v69.03h-24v-65.42c0-10.48-2.62-18.51-7.86-24.11-5.24-5.59-12.39-8.39-21.45-8.39s-16.25,2.8-21.56,8.39c-5.31,5.6-7.97,13.63-7.97,24.11v65.42h-24.21v-117.04h24.21v13.38c3.96-4.81,9.03-8.57,15.19-11.26,6.16-2.69,12.71-4.04,19.65-4.04,9.2,0,17.45,1.91,24.75,5.74Z" class="cls-1"></path>
        <path d="M622.67,749.21c4.88-9.06,11.54-16.11,19.97-21.13,8.42-5.02,17.74-7.54,27.93-7.54,9.2,0,17.24,1.81,24.11,5.42,6.87,3.61,12.35,8.11,16.46,13.49v-16.99h24.43v117.04h-24.43v-17.42c-4.11,5.52-9.7,10.13-16.78,13.81-7.08,3.68-15.15,5.52-24.21,5.52-10.06,0-19.26-2.58-27.61-7.75-8.36-5.17-14.97-12.39-19.86-21.67-4.89-9.27-7.33-19.79-7.33-31.54s2.44-22.16,7.33-31.22ZM706.14,759.83c-3.33-5.95-7.68-10.48-13.06-13.59-5.38-3.11-11.19-4.67-17.42-4.67s-12.04,1.52-17.42,4.57c-5.38,3.05-9.74,7.51-13.06,13.38-3.33,5.88-4.99,12.85-4.99,20.92s1.66,15.15,4.99,21.24c3.33,6.09,7.72,10.73,13.17,13.91,5.45,3.19,11.22,4.78,17.31,4.78s12.03-1.56,17.42-4.67c5.38-3.11,9.73-7.68,13.06-13.7,3.33-6.02,4.99-13.06,4.99-21.13s-1.67-15.08-4.99-21.03Z" class="cls-1"></path>
        <path d="M795.67,742.2v64.78c0,4.39,1.03,7.54,3.08,9.45,2.05,1.91,5.55,2.87,10.51,2.87h14.87v20.18h-19.12c-10.91,0-19.26-2.55-25.06-7.65-5.81-5.1-8.71-13.38-8.71-24.85v-64.78h-13.81v-19.75h13.81v-29.1h24.43v29.1h28.46v19.75h-28.46Z" class="cls-1"></path>
        <path d="M847.71,702.48c-2.97-2.97-4.46-6.65-4.46-11.05s1.49-8.07,4.46-11.04c2.97-2.97,6.65-4.46,11.04-4.46s7.86,1.49,10.83,4.46,4.46,6.66,4.46,11.04-1.49,8.07-4.46,11.05-6.58,4.46-10.83,4.46-8.07-1.49-11.04-4.46ZM870.65,722.45v117.04h-24.21v-117.04h24.21Z" class="cls-1"></path>
        <path d="M923.33,833.86c-8.92-5.02-15.93-12.11-21.03-21.24s-7.65-19.72-7.65-31.75,2.62-22.44,7.86-31.65c5.24-9.2,12.39-16.28,21.45-21.24,9.06-4.96,19.19-7.43,30.37-7.43s21.31,2.48,30.37,7.43c9.06,4.96,16.21,12.04,21.45,21.24,5.24,9.21,7.86,19.75,7.86,31.65s-2.69,22.45-8.07,31.65c-5.38,9.21-12.71,16.32-21.98,21.35-9.28,5.03-19.51,7.54-30.69,7.54s-21.03-2.51-29.95-7.54ZM970.8,815.91c5.45-2.97,9.88-7.43,13.28-13.38s5.1-13.17,5.1-21.67-1.63-15.68-4.88-21.56c-3.26-5.87-7.58-10.3-12.96-13.28-5.38-2.97-11.19-4.46-17.42-4.46s-12,1.49-17.31,4.46-9.53,7.4-12.64,13.28c-3.12,5.88-4.67,13.06-4.67,21.56,0,12.61,3.22,22.34,9.66,29.21,6.44,6.87,14.55,10.3,24.32,10.3,6.23,0,12.07-1.49,17.52-4.46Z" class="cls-1"></path>
        <path d="M1121.82,726.27c7.29,3.82,12.99,9.49,17.1,16.99,4.11,7.51,6.16,16.57,6.16,27.19v69.03h-24v-65.42c0-10.48-2.62-18.51-7.86-24.11-5.24-5.59-12.39-8.39-21.46-8.39s-16.25,2.8-21.56,8.39c-5.31,5.6-7.96,13.63-7.96,24.11v65.42h-24.21v-117.04h24.21v13.38c3.96-4.81,9.03-8.57,15.19-11.26,6.16-2.69,12.71-4.04,19.65-4.04,9.2,0,17.45,1.91,24.75,5.74Z" class="cls-1"></path>
        <path d="M1175.13,749.21c4.88-9.06,11.54-16.11,19.97-21.13,8.42-5.02,17.74-7.54,27.93-7.54,9.2,0,17.24,1.81,24.11,5.42,6.87,3.61,12.35,8.11,16.46,13.49v-16.99h24.43v117.04h-24.43v-17.42c-4.11,5.52-9.7,10.13-16.78,13.81-7.08,3.68-15.15,5.52-24.21,5.52-10.06,0-19.26-2.58-27.61-7.75-8.36-5.17-14.98-12.39-19.86-21.67-4.89-9.27-7.33-19.79-7.33-31.54s2.44-22.16,7.33-31.22ZM1258.61,759.83c-3.33-5.95-7.68-10.48-13.06-13.59-5.38-3.11-11.19-4.67-17.42-4.67s-12.04,1.52-17.42,4.57c-5.38,3.05-9.74,7.51-13.06,13.38-3.33,5.88-4.99,12.85-4.99,20.92s1.66,15.15,4.99,21.24c3.33,6.09,7.72,10.73,13.17,13.91,5.45,3.19,11.22,4.78,17.31,4.78s12.03-1.56,17.42-4.67c5.38-3.11,9.73-7.68,13.06-13.7,3.33-6.02,4.99-13.06,4.99-21.13s-1.67-15.08-4.99-21.03Z" class="cls-1"></path>
        <path d="M1344.1,682.3v157.18h-24.21v-157.18h24.21Z" class="cls-1"></path>
        <path d="M1455.4,819.94h49.92v19.54h-74.13v-147.62h24.21v128.08Z" class="cls-1"></path>
        <path d="M1631.91,789.99h-89.42c.71,9.35,4.17,16.85,10.41,22.52,6.23,5.67,13.88,8.5,22.94,8.5,13.03,0,22.23-5.45,27.61-16.36h26.13c-3.54,10.76-9.95,19.58-19.22,26.44-9.28,6.87-20.78,10.3-34.52,10.3-11.19,0-21.21-2.51-30.06-7.54-8.85-5.02-15.79-12.11-20.82-21.24-5.03-9.13-7.54-19.72-7.54-31.75s2.44-22.62,7.33-31.75c4.88-9.13,11.75-16.18,20.6-21.13,8.85-4.96,19.01-7.43,30.48-7.43s20.89,2.41,29.53,7.22c8.64,4.82,15.36,11.58,20.18,20.29,4.81,8.71,7.22,18.73,7.22,30.06,0,4.39-.29,8.36-.85,11.9ZM1607.49,770.45c-.14-8.92-3.33-16.07-9.56-21.45-6.23-5.38-13.95-8.07-23.15-8.07-8.36,0-15.51,2.65-21.45,7.96-5.95,5.31-9.49,12.5-10.62,21.56h64.79Z" class="cls-1"></path>
        <path d="M1655.81,749.21c4.88-9.06,11.54-16.11,19.97-21.13,8.42-5.02,17.74-7.54,27.93-7.54,9.2,0,17.24,1.81,24.11,5.42,6.87,3.61,12.35,8.11,16.46,13.49v-16.99h24.43v117.04h-24.43v-17.42c-4.11,5.52-9.7,10.13-16.78,13.81-7.08,3.68-15.15,5.52-24.21,5.52-10.06,0-19.26-2.58-27.61-7.75-8.36-5.17-14.98-12.39-19.86-21.67-4.89-9.27-7.33-19.79-7.33-31.54s2.44-22.16,7.33-31.22ZM1739.28,759.83c-3.33-5.95-7.68-10.48-13.06-13.59-5.38-3.11-11.19-4.67-17.42-4.67s-12.04,1.52-17.42,4.57c-5.38,3.05-9.74,7.51-13.06,13.38-3.33,5.88-4.99,12.85-4.99,20.92s1.66,15.15,4.99,21.24c3.33,6.09,7.72,10.73,13.17,13.91,5.45,3.19,11.22,4.78,17.31,4.78s12.03-1.56,17.42-4.67c5.38-3.11,9.73-7.68,13.06-13.7,3.33-6.02,4.99-13.06,4.99-21.13s-1.67-15.08-4.99-21.03Z" class="cls-1"></path>
        <path d="M1838.9,725.53c5.88-3.33,12.85-4.99,20.92-4.99v25.06h-6.16c-9.49,0-16.67,2.41-21.56,7.22-4.89,4.82-7.33,13.17-7.33,25.06v61.6h-24.21v-117.04h24.21v16.99c3.54-5.95,8.25-10.58,14.12-13.91Z" class="cls-1"></path>
        <path d="M1965.92,726.27c7.29,3.82,12.99,9.49,17.1,16.99,4.11,7.51,6.16,16.57,6.16,27.19v69.03h-24v-65.42c0-10.48-2.62-18.51-7.86-24.11-5.24-5.59-12.39-8.39-21.45-8.39s-16.25,2.8-21.56,8.39c-5.31,5.6-7.96,13.63-7.96,24.11v65.42h-24.21v-117.04h24.21v13.38c3.96-4.81,9.03-8.57,15.19-11.26,6.16-2.69,12.71-4.04,19.65-4.04,9.2,0,17.45,1.91,24.75,5.74Z" class="cls-1"></path>
        <path d="M2021.25,702.48c-2.97-2.97-4.46-6.65-4.46-11.05s1.49-8.07,4.46-11.04,6.65-4.46,11.04-4.46,7.86,1.49,10.83,4.46,4.46,6.66,4.46,11.04-1.49,8.07-4.46,11.05-6.58,4.46-10.83,4.46-8.07-1.49-11.04-4.46ZM2044.19,722.45v117.04h-24.21v-117.04h24.21Z" class="cls-1"></path>
        <path d="M2159.85,726.27c7.29,3.82,12.99,9.49,17.1,16.99,4.11,7.51,6.16,16.57,6.16,27.19v69.03h-24v-65.42c0-10.48-2.62-18.51-7.86-24.11-5.24-5.59-12.39-8.39-21.45-8.39s-16.25,2.8-21.56,8.39c-5.31,5.6-7.96,13.63-7.96,24.11v65.42h-24.21v-117.04h24.21v13.38c3.96-4.81,9.03-8.57,15.19-11.26,6.16-2.69,12.71-4.04,19.65-4.04,9.2,0,17.45,1.91,24.75,5.74Z" class="cls-1"></path>
        <path d="M2285.16,725.95c7.01,3.61,12.5,8.11,16.46,13.49v-16.99h24.43v118.95c0,10.76-2.27,20.35-6.8,28.78-4.53,8.42-11.08,15.04-19.65,19.86-8.57,4.81-18.8,7.22-30.69,7.22-15.86,0-29.03-3.72-39.51-11.15-10.48-7.43-16.43-17.52-17.84-30.27h24c1.84,6.09,5.77,11.01,11.79,14.76,6.02,3.75,13.2,5.63,21.56,5.63,9.77,0,17.66-2.97,23.68-8.92,6.02-5.95,9.03-14.59,9.03-25.91v-19.54c-4.11,5.52-9.67,10.16-16.67,13.91-7.01,3.75-14.97,5.63-23.9,5.63-10.2,0-19.51-2.58-27.93-7.75-8.43-5.17-15.08-12.39-19.97-21.67-4.89-9.27-7.33-19.79-7.33-31.54s2.44-22.16,7.33-31.22c4.88-9.06,11.54-16.11,19.97-21.13,8.42-5.02,17.74-7.54,27.93-7.54,9.06,0,17.1,1.81,24.11,5.42ZM2296.63,759.83c-3.33-5.95-7.68-10.48-13.06-13.59-5.38-3.11-11.19-4.67-17.42-4.67s-12.04,1.52-17.42,4.57c-5.38,3.05-9.74,7.51-13.06,13.38-3.33,5.88-4.99,12.85-4.99,20.92s1.66,15.15,4.99,21.24c3.33,6.09,7.72,10.73,13.17,13.91,5.45,3.19,11.22,4.78,17.31,4.78s12.03-1.56,17.42-4.67c5.38-3.11,9.73-7.68,13.06-13.7,3.33-6.02,4.99-13.06,4.99-21.13s-1.67-15.08-4.99-21.03Z" class="cls-1"></path>
        <path d="M2500.01,691.86v19.75h-62.66v43.54h48.85v19.75h-48.85v64.57h-24.21v-147.62h86.88Z" class="cls-1"></path>
        <path d="M2628.95,789.99h-89.42c.71,9.35,4.17,16.85,10.41,22.52,6.23,5.67,13.88,8.5,22.94,8.5,13.03,0,22.23-5.45,27.61-16.36h26.13c-3.54,10.76-9.95,19.58-19.22,26.44-9.28,6.87-20.78,10.3-34.52,10.3-11.19,0-21.21-2.51-30.06-7.54-8.85-5.02-15.79-12.11-20.82-21.24-5.03-9.13-7.54-19.72-7.54-31.75s2.44-22.62,7.33-31.75c4.88-9.13,11.75-16.18,20.6-21.13,8.85-4.96,19.01-7.43,30.48-7.43s20.89,2.41,29.53,7.22c8.64,4.82,15.36,11.58,20.18,20.29,4.81,8.71,7.22,18.73,7.22,30.06,0,4.39-.29,8.36-.85,11.9ZM2604.52,770.45c-.14-8.92-3.33-16.07-9.56-21.45-6.23-5.38-13.95-8.07-23.15-8.07-8.36,0-15.51,2.65-21.45,7.96-5.95,5.31-9.49,12.5-10.62,21.56h64.79Z" class="cls-1"></path>
        <path d="M2671.32,836.4c-7.29-3.33-13.06-7.86-17.31-13.59-4.25-5.74-6.51-12.14-6.8-19.22h25.06c.42,4.96,2.79,9.1,7.12,12.43,4.32,3.33,9.73,4.99,16.25,4.99s12.07-1.31,15.82-3.93c3.75-2.62,5.63-5.98,5.63-10.09,0-4.39-2.09-7.65-6.27-9.77-4.18-2.12-10.8-4.46-19.86-7.01-8.78-2.41-15.93-4.74-21.45-7.01-5.52-2.26-10.3-5.74-14.34-10.41-4.04-4.67-6.05-10.83-6.05-18.48,0-6.23,1.84-11.93,5.52-17.1,3.68-5.17,8.95-9.24,15.82-12.21,6.87-2.97,14.76-4.46,23.68-4.46,13.31,0,24.04,3.37,32.18,10.09,8.14,6.73,12.5,15.9,13.06,27.51h-24.21c-.42-5.24-2.55-9.42-6.37-12.53-3.82-3.11-8.99-4.67-15.51-4.67s-11.26,1.2-14.66,3.61c-3.4,2.41-5.1,5.6-5.1,9.56,0,3.12,1.13,5.74,3.4,7.86,2.26,2.12,5.02,3.79,8.28,4.99,3.26,1.21,8.07,2.73,14.44,4.57,8.5,2.27,15.47,4.57,20.92,6.9,5.45,2.34,10.16,5.77,14.12,10.3,3.96,4.53,6.02,10.55,6.16,18.05,0,6.66-1.84,12.61-5.52,17.84-3.68,5.24-8.89,9.35-15.61,12.32-6.73,2.97-14.62,4.46-23.68,4.46s-17.45-1.67-24.75-4.99Z" class="cls-1"></path>
        <path d="M2795.26,742.2v64.78c0,4.39,1.03,7.54,3.08,9.45,2.05,1.91,5.56,2.87,10.51,2.87h14.87v20.18h-19.12c-10.91,0-19.26-2.55-25.06-7.65-5.81-5.1-8.71-13.38-8.71-24.85v-64.78h-13.81v-19.75h13.81v-29.1h24.43v29.1h28.46v19.75h-28.46Z" class="cls-1"></path>
        <path d="M2847.3,702.48c-2.97-2.97-4.46-6.65-4.46-11.05s1.49-8.07,4.46-11.04,6.65-4.46,11.04-4.46,7.86,1.49,10.83,4.46,4.46,6.66,4.46,11.04-1.49,8.07-4.46,11.05-6.58,4.46-10.83,4.46-8.07-1.49-11.04-4.46ZM2870.24,722.45v117.04h-24.21v-117.04h24.21Z" class="cls-1"></path>
        <path d="M2947.34,817.82l33.14-95.37h25.7l-44.61,117.04h-28.89l-44.39-117.04h25.91l33.14,95.37Z" class="cls-1"></path>
        <path d="M3023.7,749.21c4.88-9.06,11.54-16.11,19.97-21.13,8.42-5.02,17.74-7.54,27.93-7.54,9.2,0,17.24,1.81,24.11,5.42,6.87,3.61,12.35,8.11,16.46,13.49v-16.99h24.43v117.04h-24.43v-17.42c-4.11,5.52-9.7,10.13-16.78,13.81-7.08,3.68-15.15,5.52-24.21,5.52-10.06,0-19.26-2.58-27.61-7.75-8.36-5.17-14.98-12.39-19.86-21.67-4.89-9.27-7.33-19.79-7.33-31.54s2.44-22.16,7.33-31.22ZM3107.18,759.83c-3.33-5.95-7.68-10.48-13.06-13.59-5.38-3.11-11.19-4.67-17.42-4.67s-12.04,1.52-17.42,4.57c-5.38,3.05-9.74,7.51-13.06,13.38-3.33,5.88-4.99,12.85-4.99,20.92s1.66,15.15,4.99,21.24c3.33,6.09,7.72,10.73,13.17,13.91,5.45,3.19,11.22,4.78,17.31,4.78s12.03-1.56,17.42-4.67c5.38-3.11,9.73-7.68,13.06-13.7,3.33-6.02,4.99-13.06,4.99-21.13s-1.67-15.08-4.99-21.03Z" class="cls-1"></path>
        <path d="M3192.67,682.3v157.18h-24.21v-157.18h24.21Z" class="cls-1"></path>
      </g>
      <g>
        <path d="M68.72,618.06H8.06V11.52h60.66v606.55Z" class="cls-2"></path>
        <path d="M512.33,618.06h-174.09c-92.16,0-157.54-52.77-157.54-149.67V11.52h60.66v467.9c0,21.27,10.24,41.75,29.93,62.23,12.61,12.61,34.66,18.91,66.96,18.91h174.09v57.5Z" class="cls-2"></path>
        <path d="M673.1,618.06h-60.66V161.19c0-95.32,65.38-148.88,156.76-148.88h174.09v56.72h-174.09c-31.51,0-53.56,6.3-66.17,18.9-19.69,21.27-29.93,41.75-29.93,63.02v130.76h202.44v57.5h-202.44v278.86Z" class="cls-2"></path>
        <path d="M1612.58,618.85h-375.74v-56.72l277.28-266.25c35.45-33.87,51.2-70.9,48.84-110.28-2.36-34.66-15.75-63.81-40.17-87.44-24.42-23.63-54.35-35.44-89.01-36.23-35.44,0-66.96,12.6-93.74,37.81-25.99,24.42-39.39,54.35-39.39,89.8v20.48h-59.87v-20.48c0-52,18.91-96.11,57.51-132.34,38.6-36.24,84.29-54.36,136.28-53.57,49.62.8,91.37,16.54,126.04,48.84,35.44,31.51,55.14,71.68,60.65,119.73.79,8.67.79,16.54.79,24.43,0,50.41-21.27,96.1-63.02,137.06l-239.47,229.23h293.03v55.93Z" class="cls-2"></path>
        <path d="M1991.45,629.88c-85.86,0-160.69-29.93-224.5-89.8-63.02-60.66-94.53-133.13-94.53-218.2s30.72-161.49,92.16-223.71c62.23-62.23,136.28-93.73,222.92-93.73s162.27,29.14,225.29,88.22c63.81,60.66,96.1,133.13,96.1,218.2s-31.5,163.06-93.73,225.29c-62.23,62.24-136.28,93.74-223.72,93.74ZM2249.83,314.79c-.79-70.11-26.78-129.97-77.99-178.81-51.2-48.84-111.86-73.26-182.75-73.26s-129.97,25.2-180.39,75.62c-49.63,49.63-74.84,109.5-74.84,178.81s25.21,129.19,75.62,178.81c50.41,49.63,110.28,74.84,180.39,75.63,71.68.79,133.13-24.43,184.33-74.84,51.2-50.41,76.41-111.06,75.63-181.96Z" class="cls-2"></path>
        <path d="M2742.9,618.85h-375.74v-56.72l277.28-266.25c35.45-33.87,51.21-70.9,48.84-110.28-2.36-34.66-15.76-63.81-40.17-87.44-24.42-23.63-54.36-35.44-89.01-36.23-35.44,0-66.96,12.6-93.74,37.81-25.99,24.42-39.39,54.35-39.39,89.8v20.48h-59.87v-20.48c0-52,18.91-96.11,57.51-132.34,38.6-36.24,84.29-54.36,136.27-53.57,49.63.8,91.38,16.54,126.04,48.84,35.44,31.51,55.14,71.68,60.66,119.73.79,8.67.79,16.54.79,24.43,0,50.41-21.27,96.1-63.02,137.06l-239.47,229.23h293.03v55.93Z" class="cls-2"></path>
        <path d="M3169.83,618.85h-63.02v-111.07h-304.06v-55.13L3094.2,13.88h74.83v438.77h54.36v55.13h-53.56v111.07ZM3106.81,452.65V98.95l-232.37,353.7h232.37Z" class="cls-2"></path>
      </g>
    </g>
  </g>
</svg>